<svg width="16" height="16" viewBox="0 0 16 16" fill="none" xmlns="http://www.w3.org/2000/svg">
<path d="M10.707 14.364C10.8945 14.1765 10.9998 13.9222 10.9998 13.657C10.9998 13.3918 10.8945 13.1375 10.707 12.95L5.75705 8L10.707 3.05C10.8892 2.8614 10.99 2.60879 10.9877 2.3466C10.9854 2.0844 10.8803 1.83359 10.6949 1.64818C10.5095 1.46277 10.2586 1.3576 9.99645 1.35532C9.73425 1.35305 9.48165 1.45384 9.29305 1.636L3.63605 7.293C3.44858 7.48053 3.34326 7.73483 3.34326 8C3.34326 8.26516 3.44858 8.51947 3.63605 8.707L9.29305 14.364C9.48058 14.5515 9.73488 14.6568 10 14.6568C10.2652 14.6568 10.5195 14.5515 10.707 14.364Z" fill="white"/>
</svg>
