<svg width="300" height="331" viewBox="0 0 300 331" fill="none" xmlns="http://www.w3.org/2000/svg">
<circle cx="106" cy="88" r="57.5" fill="#0083C8" stroke="white" stroke-width="13"/>
<circle cx="150" cy="64" r="57.5" fill="black" stroke="white" stroke-width="13"/>
<circle cx="194" cy="88" r="57.5" fill="#EE334E" stroke="white" stroke-width="13"/>
<circle cx="190" cy="135" r="57.5" fill="#00A651" stroke="white" stroke-width="13"/>
<circle cx="111" cy="135" r="57.5" fill="#FCB131" stroke="white" stroke-width="13"/>
<path d="M39.3003 272.64C35.5456 272.64 32.1963 271.808 29.2523 270.144C26.3509 268.48 24.0896 266.027 22.4683 262.784C20.8469 259.541 20.0363 255.595 20.0363 250.944C20.0363 246.379 20.8896 242.475 22.5963 239.232C24.3029 235.989 26.7349 233.493 29.8923 231.744C33.0923 229.995 36.8469 229.12 41.1563 229.12C45.9349 229.12 49.7963 229.995 52.7403 231.744C55.6843 233.451 57.9669 236.181 59.5883 239.936L49.4123 243.968C48.8576 241.792 47.8763 240.213 46.4683 239.232C45.0603 238.251 43.3109 237.76 41.2203 237.76C39.1296 237.76 37.3376 238.272 35.8443 239.296C34.3509 240.277 33.2203 241.749 32.4523 243.712C31.6843 245.632 31.3003 248.021 31.3003 250.88C31.3003 253.867 31.6843 256.363 32.4523 258.368C33.2629 260.373 34.4363 261.867 35.9722 262.848C37.5509 263.787 39.4923 264.256 41.7963 264.256C43.0336 264.256 44.1643 264.107 45.1883 263.808C46.2123 263.509 47.1083 263.083 47.8763 262.528C48.6443 261.931 49.2416 261.205 49.6683 260.352C50.0949 259.456 50.3083 258.411 50.3083 257.216V256.576H40.6443V249.216H59.6523V272H52.1643L51.3323 262.08L53.1243 263.616C52.2283 266.517 50.6069 268.757 48.2603 270.336C45.9563 271.872 42.9696 272.64 39.3003 272.64ZM87.0223 229.12C91.2889 229.12 94.9583 229.995 98.0303 231.744C101.145 233.451 103.534 235.925 105.198 239.168C106.862 242.411 107.694 246.315 107.694 250.88C107.694 255.445 106.862 259.349 105.198 262.592C103.534 265.835 101.145 268.331 98.0303 270.08C94.9583 271.787 91.2889 272.64 87.0223 272.64C82.7556 272.64 79.0649 271.787 75.9503 270.08C72.8356 268.331 70.4463 265.835 68.7823 262.592C67.1183 259.349 66.2863 255.445 66.2863 250.88C66.2863 246.315 67.1183 242.411 68.7823 239.168C70.4463 235.925 72.8356 233.451 75.9503 231.744C79.0649 229.995 82.7556 229.12 87.0223 229.12ZM87.0223 237.76C84.9743 237.76 83.2463 238.251 81.8383 239.232C80.4303 240.213 79.3636 241.685 78.6383 243.648C77.9129 245.568 77.5503 247.979 77.5503 250.88C77.5503 253.739 77.9129 256.149 78.6383 258.112C79.3636 260.075 80.4303 261.547 81.8383 262.528C83.2463 263.509 84.9743 264 87.0223 264C89.0703 264 90.7769 263.509 92.1423 262.528C93.5503 261.547 94.6169 260.075 95.3423 258.112C96.0676 256.149 96.4303 253.739 96.4303 250.88C96.4303 247.979 96.0676 245.568 95.3423 243.648C94.6169 241.685 93.5503 240.213 92.1423 239.232C90.7769 238.251 89.0703 237.76 87.0223 237.76ZM126.274 263.488H147.458V272H115.266V229.76H126.274V263.488ZM171.686 229.76C178.299 229.76 183.355 231.595 186.854 235.264C190.395 238.933 192.166 244.139 192.166 250.88C192.166 257.621 190.395 262.827 186.854 266.496C183.355 270.165 178.299 272 171.686 272H153.766V229.76H171.686ZM170.598 263.68C174.182 263.68 176.784 262.613 178.406 260.48C180.07 258.304 180.902 255.104 180.902 250.88C180.902 246.656 180.07 243.477 178.406 241.344C176.784 239.168 174.182 238.08 170.598 238.08H164.774V263.68H170.598ZM199.703 272V229.76H232.599V238.272H210.711V246.848H228.119V254.848H210.711V263.488H233.431V272H199.703ZM278.158 229.76V272H265.934L252.814 249.152L249.614 242.88H249.55L249.806 250.688V272H240.078V229.76H252.302L265.422 252.608L268.622 258.88H268.686L268.43 251.072V229.76H278.158ZM15.9925 317.488H37.1765V326H4.9845V283.76H15.9925V317.488ZM43.4845 326V283.76H76.3805V292.272H54.4925V300.848H71.9005V308.848H54.4925V317.488H77.2125V326H43.4845ZM100.957 326.64C97.2018 326.64 93.8525 325.808 90.9085 324.144C88.0072 322.48 85.7458 320.027 84.1245 316.784C82.5032 313.541 81.6925 309.595 81.6925 304.944C81.6925 300.379 82.5458 296.475 84.2525 293.232C85.9592 289.989 88.3912 287.493 91.5485 285.744C94.7485 283.995 98.5032 283.12 102.813 283.12C107.591 283.12 111.453 283.995 114.397 285.744C117.341 287.451 119.623 290.181 121.245 293.936L111.069 297.968C110.514 295.792 109.533 294.213 108.125 293.232C106.717 292.251 104.967 291.76 102.877 291.76C100.786 291.76 98.9938 292.272 97.5005 293.296C96.0072 294.277 94.8765 295.749 94.1085 297.712C93.3405 299.632 92.9565 302.021 92.9565 304.88C92.9565 307.867 93.3405 310.363 94.1085 312.368C94.9192 314.373 96.0925 315.867 97.6285 316.848C99.2072 317.787 101.149 318.256 103.453 318.256C104.69 318.256 105.821 318.107 106.845 317.808C107.869 317.509 108.765 317.083 109.533 316.528C110.301 315.931 110.898 315.205 111.325 314.352C111.751 313.456 111.965 312.411 111.965 311.216V310.576H102.301V303.216H121.309V326H113.821L112.989 316.08L114.781 317.616C113.885 320.517 112.263 322.757 109.917 324.336C107.613 325.872 104.626 326.64 100.957 326.64ZM129.735 326V283.76H162.631V292.272H140.743V300.848H158.151V308.848H140.743V317.488H163.463V326H129.735ZM208.19 283.76V326H195.966L182.846 303.152L179.646 296.88H179.582L179.838 304.688V326H170.11V283.76H182.333L195.454 306.608L198.654 312.88H198.718L198.462 305.072V283.76H208.19ZM235.467 283.76C242.08 283.76 247.136 285.595 250.635 289.264C254.176 292.933 255.947 298.139 255.947 304.88C255.947 311.621 254.176 316.827 250.635 320.496C247.136 324.165 242.08 326 235.467 326H217.547V283.76H235.467ZM234.379 317.68C237.963 317.68 240.566 316.613 242.187 314.48C243.851 312.304 244.683 309.104 244.683 304.88C244.683 300.656 243.851 297.477 242.187 295.344C240.566 293.168 237.963 292.08 234.379 292.08H228.555V317.68H234.379ZM279.622 283.12C283.547 283.12 287.003 283.739 289.99 284.976C293.019 286.171 295.643 287.941 297.862 290.288L292.55 297.392C290.715 295.472 288.731 294.043 286.598 293.104C284.507 292.123 282.118 291.632 279.43 291.632C277.851 291.632 276.571 291.803 275.59 292.144C274.608 292.485 273.904 292.955 273.478 293.552C273.051 294.149 272.838 294.832 272.838 295.6C272.838 296.496 273.243 297.264 274.054 297.904C274.907 298.501 276.272 299.013 278.15 299.44L285.254 301.04C289.478 302.021 292.571 303.451 294.534 305.328C296.496 307.205 297.478 309.701 297.478 312.816C297.478 315.803 296.71 318.341 295.174 320.432C293.638 322.48 291.526 324.037 288.838 325.104C286.15 326.128 283.078 326.64 279.622 326.64C276.806 326.64 274.118 326.341 271.558 325.744C268.998 325.104 266.694 324.208 264.646 323.056C262.598 321.904 260.87 320.581 259.462 319.088L264.774 311.728C265.84 312.965 267.142 314.075 268.678 315.056C270.256 315.995 271.963 316.741 273.798 317.296C275.675 317.851 277.574 318.128 279.494 318.128C280.987 318.128 282.224 317.979 283.206 317.68C284.23 317.381 284.976 316.933 285.446 316.336C285.915 315.739 286.15 315.035 286.15 314.224C286.15 313.328 285.83 312.581 285.19 311.984C284.55 311.344 283.334 310.811 281.542 310.384L273.734 308.656C271.344 308.101 269.211 307.376 267.334 306.48C265.499 305.541 264.048 304.304 262.982 302.768C261.915 301.189 261.382 299.227 261.382 296.88C261.382 294.235 262.107 291.888 263.558 289.84C265.008 287.749 267.099 286.107 269.83 284.912C272.56 283.717 275.824 283.12 279.622 283.12Z" fill="black"/>
</svg>
