<svg width="39" height="36" viewBox="0 0 39 36" fill="none" xmlns="http://www.w3.org/2000/svg">
<path d="M22.1128 15.7843C22.1128 21.4357 17.4099 26.0589 11.5564 26.0589C5.70283 26.0589 1 21.4357 1 15.7843C1 10.133 5.70283 5.50983 11.5564 5.50983C17.4099 5.50983 22.1128 10.133 22.1128 15.7843Z" fill="#0083C8" stroke="white" stroke-width="2"/>
<circle cx="19.4486" cy="11.5564" r="10.5564" fill="black" stroke="white" stroke-width="2"/>
<circle cx="27.0588" cy="15.7843" r="10.2745" fill="#EE334E" stroke="white" stroke-width="2"/>
<path d="M36.7696 23.9583C36.7696 29.8119 32.1464 34.5147 26.4951 34.5147C20.8438 34.5147 16.2206 29.8119 16.2206 23.9583C16.2206 18.1048 20.8438 13.4019 26.4951 13.4019C32.1464 13.4019 36.7696 18.1048 36.7696 23.9583Z" fill="#00A651" stroke="white" stroke-width="2"/>
<path d="M22.6765 23.9583C22.6765 29.8119 18.0533 34.5147 12.402 34.5147C6.75063 34.5147 2.12744 29.8119 2.12744 23.9583C2.12744 18.1048 6.75063 13.4019 12.402 13.4019C18.0533 13.4019 22.6765 18.1048 22.6765 23.9583Z" fill="#FCB131" stroke="white" stroke-width="2"/>
</svg>
