<svg width="256" height="256" viewBox="0 0 256 256" fill="none" xmlns="http://www.w3.org/2000/svg">
<rect x="95" y="21" width="65" height="27" rx="13.5" fill="white"/>
<rect x="95" y="21" width="65" height="27" rx="13.5" fill="white"/>
<rect x="51" y="54" width="152" height="170" rx="15" fill="white"/>
<rect x="51" y="54" width="152" height="170" rx="15" fill="white"/>
<path d="M168 40.58V32C168 25.6348 165.471 19.5303 160.971 15.0294C156.47 10.5286 150.365 8 144 8H112C105.635 8 99.5303 10.5286 95.0294 15.0294C90.5286 19.5303 88 25.6348 88 32V40.58C74.6808 42.5213 62.5038 49.1876 53.6917 59.3619C44.8796 69.5362 40.02 82.5401 40 96V216C40 220.243 41.6857 224.313 44.6863 227.314C47.6869 230.314 51.7565 232 56 232H200C204.243 232 208.313 230.314 211.314 227.314C214.314 224.313 216 220.243 216 216V96C215.98 82.5401 211.12 69.5362 202.308 59.3619C193.496 49.1876 181.319 42.5213 168 40.58ZM112 24H144C146.122 24 148.157 24.8429 149.657 26.3431C151.157 27.8434 152 29.8783 152 32V40H104V32C104 29.8783 104.843 27.8434 106.343 26.3431C107.843 24.8429 109.878 24 112 24ZM168 160H88V152C88 149.878 88.8429 147.843 90.3431 146.343C91.8434 144.843 93.8783 144 96 144H160C162.122 144 164.157 144.843 165.657 146.343C167.157 147.843 168 149.878 168 152V160ZM88 176H136V184C136 186.122 136.843 188.157 138.343 189.657C139.843 191.157 141.878 192 144 192C146.122 192 148.157 191.157 149.657 189.657C151.157 188.157 152 186.122 152 184V176H168V216H88V176ZM200 216H184V152C184 145.635 181.471 139.53 176.971 135.029C172.47 130.529 166.365 128 160 128H96C89.6348 128 83.5303 130.529 79.0294 135.029C74.5286 139.53 72 145.635 72 152V216H56V96C56 85.3913 60.2143 75.2172 67.7157 67.7157C75.2172 60.2143 85.3913 56 96 56H160C170.609 56 180.783 60.2143 188.284 67.7157C195.786 75.2172 200 85.3913 200 96V216ZM152 88C152 90.1217 151.157 92.1566 149.657 93.6569C148.157 95.1571 146.122 96 144 96H112C109.878 96 107.843 95.1571 106.343 93.6569C104.843 92.1566 104 90.1217 104 88C104 85.8783 104.843 83.8434 106.343 82.3431C107.843 80.8429 109.878 80 112 80H144C146.122 80 148.157 80.8429 149.657 82.3431C151.157 83.8434 152 85.8783 152 88Z" fill="black"/>
</svg>
