<svg width="24" height="24" viewBox="0 1 21 21" fill="none" xmlns="http://www.w3.org/2000/svg">
<rect x="7" y="17" width="9" height="2" fill="white"/>
<rect x="8" y="6" width="8" height="3" fill="white"/>
<rect x="7" y="8" width="10" height="10" fill="white"/>
<rect x="10" y="4" width="4" height="15" fill="white"/>
<rect x="10" y="4" width="4" height="15" fill="white"/>
<rect x="10" y="4" width="4" height="15" fill="white"/>
<path d="M13 18H14V16H13C12.1667 16 11.4583 15.7083 10.875 15.125C10.2917 14.5417 10 13.8333 10 13V12H8V13C8 14.3833 8.48767 15.5627 9.463 16.538C10.4383 17.5133 11.6173 18.0007 13 18ZM12 21C10.05 21 8.396 20.321 7.038 18.963C5.68 17.605 5.00067 15.9507 5 14C5 12.7167 5.21267 11.425 5.638 10.125C6.06333 8.825 6.61333 7.646 7.288 6.588C7.96267 5.53 8.71667 4.66733 9.55 4C10.3833 3.33267 11.2 2.99933 12 3C12.8167 3 13.6377 3.33333 14.463 4C15.2883 4.66667 16.0383 5.52933 16.713 6.588C17.3877 7.64667 17.9377 8.82567 18.363 10.125C18.7883 11.4243 19.0007 12.716 19 14C19 15.95 18.321 17.6043 16.963 18.963C15.605 20.3217 13.9507 21.0007 12 21ZM12 19C13.3833 19 14.5627 18.5123 15.538 17.537C16.5133 16.5617 17.0007 15.3827 17 14C17 13.05 16.8373 12.05 16.512 11C16.1867 9.95 15.7783 8.97933 15.287 8.088C14.7957 7.19667 14.2583 6.459 13.675 5.875C13.0917 5.291 12.5333 4.99933 12 5C11.4833 5 10.9293 5.29167 10.338 5.875C9.74667 6.45833 9.205 7.196 8.713 8.088C8.221 8.98 7.81267 9.95067 7.488 11C7.16333 12.0493 7.00067 13.0493 7 14C7 15.3833 7.48767 16.5627 8.463 17.538C9.43833 18.5133 10.6173 19.0007 12 19Z" fill="black"/>
</svg>
