<svg width="23" height="23" viewBox="0 0 23 23" fill="none" xmlns="http://www.w3.org/2000/svg">
<mask id="path-1-inside-1_1541_80" fill="white">
<path fill-rule="evenodd" clip-rule="evenodd" d="M1.31802 1.31802C3.07538 -0.43934 5.92462 -0.43934 7.68198 1.31802L11.4043 5.04034L15.1266 1.31802C16.884 -0.43934 19.7332 -0.43934 21.4906 1.31802C23.2479 3.07538 23.2479 5.92462 21.4906 7.68198L17.7683 11.4043L21.4906 15.1266C23.2479 16.884 23.2479 19.7332 21.4906 21.4906C19.7332 23.2479 16.884 23.2479 15.1266 21.4906L11.4043 17.7683L7.68198 21.4906C5.92463 23.2479 3.07538 23.2479 1.31802 21.4906C-0.439336 19.7332 -0.439338 16.884 1.31802 15.1266L5.04034 11.4043L1.31802 7.68198C-0.439341 5.92462 -0.439339 3.07538 1.31802 1.31802Z"/>
</mask>
<path fill-rule="evenodd" clip-rule="evenodd" d="M1.31802 1.31802C3.07538 -0.43934 5.92462 -0.43934 7.68198 1.31802L11.4043 5.04034L15.1266 1.31802C16.884 -0.43934 19.7332 -0.43934 21.4906 1.31802C23.2479 3.07538 23.2479 5.92462 21.4906 7.68198L17.7683 11.4043L21.4906 15.1266C23.2479 16.884 23.2479 19.7332 21.4906 21.4906C19.7332 23.2479 16.884 23.2479 15.1266 21.4906L11.4043 17.7683L7.68198 21.4906C5.92463 23.2479 3.07538 23.2479 1.31802 21.4906C-0.439336 19.7332 -0.439338 16.884 1.31802 15.1266L5.04034 11.4043L1.31802 7.68198C-0.439341 5.92462 -0.439339 3.07538 1.31802 1.31802Z" fill="white"/>
<path d="M7.68198 1.31802L6.26777 2.73223L6.26777 2.73223L7.68198 1.31802ZM1.31802 1.31802L2.73223 2.73223L2.73224 2.73223L1.31802 1.31802ZM11.4043 5.04034L9.99009 6.45455L11.4043 7.86876L12.8185 6.45455L11.4043 5.04034ZM15.1266 1.31802L13.7124 -0.0961944V-0.0961942L15.1266 1.31802ZM21.4906 1.31802L20.0764 2.73223L20.0764 2.73223L21.4906 1.31802ZM21.4906 7.68198L22.9048 9.09619L21.4906 7.68198ZM17.7683 11.4043L16.354 9.99009L14.9398 11.4043L16.354 12.8185L17.7683 11.4043ZM21.4906 15.1266L22.9048 13.7124L21.4906 15.1266ZM11.4043 17.7683L12.8185 16.354L11.4043 14.9398L9.99009 16.354L11.4043 17.7683ZM7.68198 21.4906L6.26777 20.0764H6.26777L7.68198 21.4906ZM1.31802 21.4906L2.73224 20.0764L2.73224 20.0764L1.31802 21.4906ZM1.31802 15.1266L2.73223 16.5408H2.73223L1.31802 15.1266ZM5.04034 11.4043L6.45455 12.8185L7.86877 11.4043L6.45455 9.99008L5.04034 11.4043ZM1.31802 7.68198L-0.096196 9.09619H-0.0961957L1.31802 7.68198ZM9.0962 -0.096194C6.55779 -2.6346 2.44221 -2.6346 -0.0961923 -0.0961938L2.73224 2.73223C3.70855 1.75592 5.29146 1.75592 6.26777 2.73223L9.0962 -0.096194ZM12.8185 3.62612L9.0962 -0.0961943L6.26777 2.73223L9.99009 6.45455L12.8185 3.62612ZM12.8185 6.45455L16.5408 2.73223L13.7124 -0.0961942L9.99009 3.62612L12.8185 6.45455ZM16.5408 2.73223C17.5171 1.75592 19.1001 1.75592 20.0764 2.73223L22.9048 -0.0961938C20.3664 -2.6346 16.2508 -2.6346 13.7124 -0.0961944L16.5408 2.73223ZM20.0764 2.73223C21.0527 3.70855 21.0527 5.29146 20.0764 6.26776L22.9048 9.09619C25.4432 6.55778 25.4432 2.44221 22.9048 -0.0961946L20.0764 2.73223ZM20.0764 6.26776L16.354 9.99009L19.1825 12.8185L22.9048 9.09619L20.0764 6.26776ZM22.9048 13.7124L19.1825 9.99009L16.354 12.8185L20.0764 16.5408L22.9048 13.7124ZM22.9048 22.9048C25.4432 20.3664 25.4432 16.2508 22.9048 13.7124L20.0764 16.5408C21.0527 17.5171 21.0527 19.1 20.0764 20.0764L22.9048 22.9048ZM13.7124 22.9048C16.2508 25.4432 20.3664 25.4432 22.9048 22.9048L20.0764 20.0764C19.1001 21.0527 17.5171 21.0527 16.5408 20.0764L13.7124 22.9048ZM9.99009 19.1825L13.7124 22.9048L16.5408 20.0764L12.8185 16.354L9.99009 19.1825ZM9.99009 16.354L6.26777 20.0764L9.0962 22.9048L12.8185 19.1825L9.99009 16.354ZM6.26777 20.0764C5.29146 21.0527 3.70855 21.0527 2.73224 20.0764L-0.0961905 22.9048C2.44222 25.4432 6.55779 25.4432 9.0962 22.9048L6.26777 20.0764ZM2.73224 20.0764C1.75593 19.1 1.75593 17.5171 2.73223 16.5408L-0.0961924 13.7124C-2.6346 16.2508 -2.6346 20.3664 -0.0961897 22.9048L2.73224 20.0764ZM2.73223 16.5408L6.45455 12.8185L3.62613 9.99008L-0.0961927 13.7124L2.73223 16.5408ZM-0.0961957 9.09619L3.62613 12.8185L6.45455 9.99008L2.73223 6.26776L-0.0961957 9.09619ZM-0.0961915 -0.0961946C-2.6346 2.44221 -2.6346 6.55778 -0.096196 9.09619L2.73223 6.26776C1.75592 5.29146 1.75592 3.70855 2.73223 2.73223L-0.0961915 -0.0961946Z" fill="black" mask="url(#path-1-inside-1_1541_80)"/>
</svg>
